<svg width="201" height="90" viewBox="0 0 201 90" fill="none" xmlns="http://www.w3.org/2000/svg">
<g clip-path="url(#clip0_1_2344)">
<path d="M8.30917 62.9125C6.96505 62.9132 5.61998 62.9256 4.27586 62.9104C2.58633 62.8912 1.52942 61.9591 1.2213 60.3083C1.01035 59.1778 1.13364 58.0418 1.07996 56.9093C1.05929 56.4779 1.25575 56.3623 1.63205 56.4008C1.66578 56.4043 1.70094 56.4008 1.73539 56.4008C2.56115 56.4076 3.58978 56.1168 4.1585 56.5021C4.77545 56.9202 4.33715 58.0156 4.37706 58.8122C4.44595 60.1858 4.88924 60.6694 6.23692 60.6799C7.68462 60.6915 9.13208 60.6922 10.5798 60.6751C11.8405 60.6607 12.2265 60.2825 12.2529 59.003C12.279 57.6942 12.2921 56.3839 12.2474 55.0762C12.2254 54.4376 12.3639 54.1862 13.0725 54.1752C15.5602 54.1366 15.5617 54.1071 15.559 56.5748C15.5576 57.6427 15.5681 58.711 15.5362 59.7782C15.4776 61.7464 14.3078 62.8886 12.3425 62.9087C10.9984 62.9227 9.65352 62.9118 8.30917 62.9125Z" fill="#19346E"/>
<path d="M30.7879 62.9144C30.0999 62.9144 29.4036 62.8489 28.7254 62.931C27.8609 63.0357 27.701 62.6673 27.7445 61.9038C27.7844 61.1989 27.6419 60.5355 28.7522 60.6652C29.6345 60.7684 30.5389 60.6858 31.4331 60.6768C31.7384 60.6732 32.0605 60.7105 32.3216 60.4928C33.2509 59.7198 32.9675 58.6595 32.8841 57.7075C32.8214 56.9917 32.3444 56.4606 31.5027 56.4509C30.5783 56.4399 29.6533 56.3853 28.7287 56.4019C28.1951 56.4117 27.94 56.3255 27.9428 55.6876C27.9504 54.1719 27.9113 54.1636 29.4464 54.1748C30.7513 54.1838 32.0598 54.1555 33.359 54.2498C34.9107 54.3628 35.9282 55.2597 36.1577 56.778C36.3418 57.9966 36.3611 59.2547 36.1316 60.4748C35.8387 62.031 34.7806 62.8605 33.1599 62.9073C32.3693 62.9301 31.5773 62.9113 30.7865 62.9113C30.7879 62.9125 30.7879 62.9139 30.7879 62.9144Z" fill="#19346E"/>
<path d="M26.9282 58.7851C26.9282 60.0913 26.9572 61.3981 26.9206 62.7029C26.8753 64.3486 25.9383 65.3705 24.3046 65.5955C23.6271 65.6893 22.9424 65.7527 22.2587 65.7788C21.8321 65.7947 21.1612 66.0006 21.2999 65.1869C21.3957 64.6262 20.7236 63.7031 22.0713 63.621C23.1957 63.5528 23.6789 62.8487 23.6905 61.63C23.7126 59.4297 23.7209 57.2286 23.6869 55.0287C23.6772 54.3792 23.8138 54.1415 24.5334 54.151C26.9247 54.1833 26.9268 54.1496 26.9446 56.5154C26.9501 57.2718 26.9453 58.0282 26.9453 58.7846C26.9408 58.7851 26.9344 58.7851 26.9282 58.7851Z" fill="#19346E"/>
<path d="M80.9072 57.1876C80.9087 58.8728 80.888 60.5577 80.9203 62.2421C80.9308 62.787 80.7543 62.9173 80.2226 62.9297C77.6548 62.9876 77.6562 63.0054 77.6555 60.4881C77.6548 57.7717 77.6783 55.0547 77.637 52.3389C77.6261 51.6129 77.7458 51.3188 78.5732 51.333C80.9061 51.3736 80.9065 51.3316 80.9072 53.6808C80.9065 54.8496 80.9065 56.0186 80.9072 57.1876Z" fill="#19346E"/>
<path d="M16.7846 57.1292C16.786 55.4455 16.8129 53.7611 16.7716 52.0787C16.7571 51.4807 16.9507 51.3492 17.5208 51.3416C20.0292 51.3064 20.0252 51.2879 20.0162 53.752C20.0064 56.5352 19.9879 59.3184 20.0107 62.1016C20.0154 62.6852 19.957 63.0033 19.2538 62.9311C18.4749 62.8511 17.4553 63.1667 16.9618 62.7768C16.4413 62.3656 16.8184 61.3053 16.7922 60.5302C16.7549 59.397 16.7832 58.2624 16.7846 57.1292Z" fill="#19346E"/>
<path d="M173.672 54.5822C173.033 54.392 172.396 54.1924 171.755 54.0138C170.811 53.7512 170.856 53.0005 170.907 52.275C170.955 51.5943 171.432 51.3643 172.046 51.3574C172.837 51.3484 173.628 51.3678 174.418 51.3477C174.817 51.3379 175.06 51.3821 175.037 51.8899C175.017 52.3218 175.004 52.609 174.444 52.5727C173.776 52.5286 173.102 52.5623 172.392 52.7698C173.051 52.9751 173.701 53.2204 174.372 53.3773C175.283 53.591 175.307 54.2681 175.274 54.9734C175.24 55.7237 174.799 56.0682 174.063 56.0667C173.238 56.0653 172.412 56.0356 171.589 56.0758C171.05 56.1019 170.89 55.929 170.883 55.3854C170.875 54.7439 171.274 54.8749 171.629 54.8714C172.301 54.8645 172.973 54.8692 173.646 54.8692C173.655 54.7738 173.663 54.6779 173.672 54.5822Z" fill="#19346E"/>
<path d="M131.736 53.3311C131.599 53.3311 131.461 53.3311 131.324 53.3311C130.215 53.3296 129.579 52.5519 130.212 51.6694C130.787 50.8662 131.97 51.5068 132.871 51.356C133.361 51.2741 133.402 51.5827 133.421 51.9773C133.489 53.3379 133.504 53.3372 131.736 53.3311Z" fill="#19346E"/>
<path d="M92.59 51.3582C92.8582 51.3582 93.0297 51.3574 93.2015 51.3582C94.1548 51.3617 94.6767 52.2421 94.2501 53.0963C94.1033 53.3897 93.8676 53.3277 93.6372 53.3299C93.1221 53.3346 92.599 53.2788 92.093 53.3484C91.2278 53.4669 91.0563 53.1361 91.0107 52.2943C90.9233 50.6568 92.1282 51.6447 92.59 51.3582Z" fill="#19346E"/>
<path d="M10.4757 51.3524C10.6123 51.3517 10.7487 51.3517 10.886 51.3517C11.8773 51.351 12.5867 52.3631 11.9614 53.0698C11.3825 53.7244 10.3607 53.2318 9.53973 53.3151C9.28269 53.3412 8.92136 53.506 8.74295 53.0933C8.33007 52.1432 8.83322 51.3531 9.86186 51.3524C10.0657 51.3524 10.2705 51.3524 10.4757 51.3524Z" fill="#19346E"/>
<path d="M6.45976 51.3524C6.5631 51.3524 6.66596 51.3524 6.7693 51.3524C8.15689 51.3517 8.47546 51.5687 8.02814 52.8391C7.64614 53.9248 6.44669 53.1311 5.63257 53.3054C5.33206 53.3695 4.8232 53.5542 4.79018 52.8101C4.7239 51.3512 4.67283 51.3531 6.45976 51.3524Z" fill="#19346E"/>
<path d="M141.738 53.3311C141.635 53.3311 141.533 53.3311 141.43 53.3311C140.083 53.3303 139.722 53.0644 140.191 51.8403C140.607 50.7511 141.841 51.5621 142.686 51.3643C143.046 51.2796 143.384 51.2748 143.409 51.8885C143.47 53.3394 143.514 53.3372 141.738 53.3311Z" fill="#19346E"/>
<path d="M88.8496 51.3513C89.0207 51.3513 89.1957 51.3748 89.3618 51.3472C90.1697 51.2143 90.3814 51.5326 90.3902 52.3463C90.3999 53.1943 90.1263 53.4217 89.3437 53.3396C88.8026 53.2824 88.2491 53.3066 87.7046 53.3396C87.2138 53.3693 87.0898 53.2005 87.0876 52.7024C87.0822 51.3524 87.0499 51.3525 88.8496 51.3513Z" fill="#19346E"/>
<path d="M137.805 51.3524C137.908 51.3524 138.011 51.3524 138.114 51.3524C139.607 51.3531 139.59 51.3517 139.47 52.7931C139.438 53.1796 139.334 53.3552 138.932 53.3372C138.42 53.3144 137.896 53.2572 137.395 53.3325C136.402 53.4813 136.055 53.1307 136.186 52.1316C136.287 51.36 136.223 51.352 137.805 51.3524Z" fill="#19346E"/>
<path d="M150.703 53.3296C150.6 53.3296 150.497 53.3296 150.395 53.3296C149.129 53.3275 148.621 52.833 149.197 51.7278C149.681 50.799 150.908 51.5542 151.78 51.3565C152.215 51.258 152.413 51.4474 152.379 51.9013C152.264 53.4331 152.861 53.3408 150.703 53.3296Z" fill="#19346E"/>
<path d="M154.673 51.3525C154.845 51.3532 155.016 51.3532 155.188 51.3532C156.183 51.3546 156.668 52.1172 156.286 53.0568C156.166 53.351 155.938 53.3325 155.698 53.3332C155.014 53.3346 154.329 53.3173 153.646 53.3448C152.791 53.3793 153.083 52.7406 153.091 52.3515C153.098 51.965 152.771 51.2988 153.646 51.3491C153.988 51.3684 154.331 51.3525 154.673 51.3525Z" fill="#19346E"/>
<path d="M182.769 63.9418C182.906 63.9418 183.043 63.9418 183.179 63.9418C184.324 63.9418 184.856 64.4978 184.282 65.4752C183.763 66.357 182.564 65.664 181.682 65.8162C181.256 65.8897 181.092 65.7039 181.065 65.2561C180.983 63.9313 180.964 63.9328 182.769 63.9418Z" fill="#19346E"/>
<path d="M178.851 65.8273C178.68 65.8273 178.51 65.8273 178.339 65.8273C177.066 65.8273 176.764 65.6371 177.216 64.446C177.655 63.2908 178.919 64.1953 179.781 63.9562C180.226 63.833 180.42 64.008 180.428 64.5329C180.447 65.8114 180.484 65.8107 178.851 65.8273Z" fill="#19346E"/>
<path d="M113.021 63.9439C113.158 63.9439 113.296 63.9439 113.433 63.9439C114.727 63.9454 114.9 64.0287 114.57 65.3368C114.308 66.3791 113.271 65.7081 112.602 65.786C112.213 65.8316 111.448 66.2649 111.333 65.3416C111.158 63.9418 111.171 63.9404 113.021 63.9439Z" fill="#19346E"/>
<path d="M109.014 65.8245C108.841 65.8245 108.669 65.8252 108.497 65.8245C107.465 65.8183 107.081 65.2293 107.398 64.2027C107.486 63.9183 107.651 63.9382 107.858 63.9396C108.41 63.9432 108.961 63.9389 109.513 63.9411C110.648 63.9458 110.961 64.3841 110.676 65.4883C110.591 65.8176 110.402 65.8252 110.151 65.8216C109.772 65.8162 109.393 65.8202 109.014 65.8202C109.014 65.8219 109.014 65.8233 109.014 65.8245Z" fill="#19346E"/>
<path d="M140.821 54.1772C140.3 54.2102 140.124 54.3508 140.135 54.9032C140.163 56.2798 140.143 57.6589 140.073 59.034C140.02 60.1031 139.428 60.637 138.356 60.6645C137.324 60.6914 136.289 60.6892 135.256 60.666C134.045 60.6384 133.514 60.1294 133.445 58.912C133.399 58.0874 133.418 57.2593 133.41 56.4327C133.39 54.182 133.39 54.2074 131.167 54.1791C130.418 54.1694 130.037 54.2976 130.128 55.1718C130.216 56.0238 130.147 56.892 130.147 57.7531C130.146 60.4096 129.678 60.8319 126.9 60.619C127.111 59.3163 127.145 58.052 126.915 56.7914C126.669 55.4417 125.858 54.5951 124.527 54.2658C123.171 53.9303 121.778 53.9325 120.422 54.106C118.13 54.3987 117.379 55.2268 117.032 57.525C116.956 58.0335 116.971 58.5556 116.907 59.0668C116.794 59.9789 116.353 60.59 115.359 60.6672C113.74 60.7932 113.08 60.486 112.758 59.445C112.477 58.5349 112.605 57.5986 112.594 56.6755C112.559 54.0535 112.574 54.0702 109.98 54.1865C109.475 54.2093 109.352 54.3477 109.361 54.841C109.387 56.1824 109.385 57.5264 109.327 58.8657C109.275 60.0843 108.657 60.6562 107.424 60.6624C103.495 60.6831 99.5657 60.6653 95.6372 60.703C94.9982 60.7092 94.9314 60.4578 94.9402 59.93C94.9685 58.2774 94.925 56.6226 94.9644 54.9697C94.9796 54.3365 94.7858 54.1402 94.1475 54.1521C92.4945 54.1832 90.8399 54.1148 89.187 54.1354C87.1176 54.1616 85.8264 55.2233 85.7017 57.0226C85.6328 58.0167 85.6252 59.024 85.7046 60.0166C85.8561 61.9091 86.9848 62.9114 88.8748 62.9121C95.4925 62.9162 102.111 62.9005 108.728 62.928C109.568 62.9316 110.374 62.4473 111.132 62.589C113.592 63.0484 116.019 63.14 118.459 62.5365C118.614 62.4986 118.798 62.5344 118.958 62.5771C119.996 62.8542 121.052 62.925 122.123 62.9174C124.639 62.9 127.156 62.8891 129.671 62.9228C130.448 62.9333 131.219 62.3867 131.862 62.5584C134.524 63.2706 137.206 62.8015 139.871 62.8891C142.178 62.9648 143.359 61.7013 143.371 59.4162C143.377 58.4519 143.372 57.4872 143.372 56.5229C143.372 54.0027 143.373 54.0167 140.821 54.1772ZM91.1245 60.6833C89.535 60.8046 89.0515 60.4862 88.9192 59.2477C88.8758 58.8412 88.8655 58.4231 88.9047 58.0171C89.0406 56.6242 90.0621 56.011 91.4098 56.4478C91.7585 56.5609 91.6813 56.7923 91.687 57.0086C91.7008 57.5245 91.6911 58.0421 91.6911 58.5587C91.6911 58.7999 91.7607 59.0691 91.6766 59.2766C91.4873 59.7443 92.2151 60.6 91.1245 60.6833ZM121.965 60.6852C120.75 60.6598 120.225 60.0081 120.236 58.5392C120.247 57.0003 120.745 56.4331 122.083 56.4381C123.383 56.4421 123.787 56.9445 123.776 58.5421C123.764 60.1349 123.277 60.713 121.965 60.6852Z" fill="#19346E"/>
<path d="M199.97 57.0318C199.667 55.063 198.814 54.3595 196.807 54.1888C196.225 54.1392 195.638 54.1363 195.053 54.1283C194.723 54.1235 194.381 54.1235 194.472 53.6584C194.68 52.5905 194.092 52.4901 193.261 52.5811C192.784 52.6335 192.296 52.5948 191.814 52.5879C191.523 52.5839 191.207 52.5803 191.28 52.9915C191.497 54.2088 190.747 54.2185 189.891 54.1579C189.516 54.1311 189.133 54.1565 188.757 54.1938C186.867 54.3825 185.949 55.345 185.772 57.2258C185.685 58.1572 185.691 59.0805 185.768 60.009C185.786 60.2239 185.944 60.4886 185.655 60.66C184.523 61.3338 182.596 60.3858 182.474 59.0617C182.401 58.2749 182.43 57.4786 182.42 56.6871C182.389 54.0962 182.391 54.1195 179.816 54.1864C179.233 54.2016 179.147 54.4144 179.158 54.9105C179.184 56.1154 179.18 57.3217 179.158 58.5273C179.132 59.9458 178.551 60.5762 177.36 60.6733C175.185 60.8511 174.891 60.16 174.651 58.7229C174.606 58.4542 174.598 58.1683 174.635 57.8984C174.737 57.1489 174.4 56.9188 173.704 57.0311C173.503 57.0634 173.291 57.0352 173.084 57.0359C171.432 57.0449 171.432 57.0449 171.349 58.6652C171.271 60.1823 170.774 60.6797 169.25 60.6844C165.39 60.6954 161.529 60.6783 157.669 60.6989C157.14 60.7018 156.967 60.5707 156.977 60.0211C157.007 58.2996 156.97 56.5765 156.98 54.8543C156.983 54.4189 156.94 54.1295 156.385 54.1425C154.457 54.186 152.524 54.1397 150.598 54.2375C148.829 54.3277 147.8 55.463 147.732 57.2446C147.7 58.1035 147.701 58.9668 147.738 59.8259C147.824 61.8328 148.945 62.9116 150.929 62.9145C154.823 62.9199 158.721 62.9978 162.613 62.8898C166.072 62.7941 169.559 63.3698 172.992 62.5282C173.101 62.5021 173.24 62.6191 173.368 62.6583C174.031 62.8622 174.713 62.8781 175.4 62.9282C177.979 63.117 180.536 62.5747 183.135 62.8634C185.314 63.1053 187.542 62.913 189.748 62.9137C192.092 62.9145 194.436 62.9235 196.78 62.9109C198.552 62.9019 199.419 62.2074 199.878 60.5128C200.192 59.3571 200.146 58.1755 199.97 57.0318ZM153.254 60.6771C151.702 60.8542 151.132 60.513 150.939 59.3556C150.854 58.8438 150.847 58.3312 150.937 57.8193C151.148 56.6221 152.401 55.9704 153.523 56.4511C153.798 56.5689 153.732 56.7674 153.736 56.9514C153.747 57.5005 153.74 58.0501 153.74 58.5992C153.741 58.8397 153.811 59.1082 153.726 59.3143C153.543 59.7635 154.28 60.5598 153.254 60.6771ZM190.849 60.6445C190.126 60.7376 189.425 60.5859 189.117 59.8559C188.76 59.0092 188.791 58.1019 189.112 57.2386C189.339 56.6261 190.498 56.2391 191.076 56.5126C191.339 56.6365 191.264 56.8448 191.267 57.0335C191.276 57.5489 191.27 58.0641 191.27 58.58C191.27 58.8894 191.327 59.2118 191.256 59.5045C191.162 59.895 191.662 60.5399 190.849 60.6445ZM195.094 60.6771C194.626 60.6811 194.416 60.6006 194.446 60.0688C194.493 59.2505 194.406 58.4231 194.479 57.6087C194.512 57.2305 194.052 56.6043 194.862 56.4763C195.8 56.3281 196.576 56.7256 196.742 57.4703C196.823 57.8326 196.804 58.2177 196.816 58.3901C196.785 60.1866 196.37 60.6659 195.094 60.6771Z" fill="#19346E"/>
<path d="M73.6125 51.3353C72.9425 51.3339 72.8238 51.5414 72.8349 52.1496C72.8722 54.1461 72.8527 56.1432 72.848 58.1398C72.8432 60.221 72.1717 60.8292 70.0947 60.6998C69.6618 60.673 69.4502 60.6013 69.6046 60.1054C69.8341 59.3682 69.7431 58.5994 69.7198 57.8464C69.6405 55.3063 68.47 54.189 65.9188 54.1731C64.4718 54.1641 63.0249 54.1608 61.5788 54.1601C60.5428 54.1601 59.5308 54.2633 58.4589 55.17C58.8243 54.1071 58.2755 54.1945 57.7738 54.1999C57.1892 54.2054 56.6041 54.213 56.0209 54.1779C55.459 54.1442 55.2433 54.3267 55.2578 54.9295C55.2984 56.6154 55.2564 58.3032 55.2832 59.9902C55.2915 60.5007 55.1799 60.7013 54.6112 60.6977C50.6496 60.6723 46.6878 60.6937 42.7262 60.6763C41.3503 60.6709 40.8058 60.1547 40.7562 58.7481C40.6975 57.0973 40.7196 55.444 40.7181 53.7921C40.7167 51.3002 40.7217 51.3265 38.2551 51.3346C37.6078 51.3367 37.4555 51.5165 37.4657 52.1442C37.5042 54.4844 37.4795 56.826 37.4809 59.1676C37.4823 61.7725 38.6053 62.909 41.2586 62.9111C51.6284 62.9201 61.9974 62.9173 72.3672 62.9075C74.9397 62.9054 76.1173 61.6951 76.1282 59.0937C76.1351 57.3376 76.1275 55.5824 76.1297 53.8263C76.1313 51.3104 76.132 51.3408 73.6125 51.3353ZM64.3961 60.6901C63.6033 60.6937 62.8113 60.6908 62.0186 60.6908C62.0186 60.6922 62.0186 60.6944 62.0186 60.6956C61.0541 60.6956 60.0884 60.6782 59.1246 60.7032C58.6834 60.7141 58.4787 60.5778 58.5594 60.1217C58.5649 60.0887 58.5609 60.0529 58.5587 60.0185C58.3843 57.2773 58.7269 56.2996 62.2371 56.3554C62.9258 56.3663 63.6152 56.363 64.3032 56.3851C65.91 56.4369 66.4305 56.9817 66.432 58.5959C66.4339 60.2706 66.0345 60.6825 64.3961 60.6901Z" fill="#19346E"/>
<path d="M193.9 83.9967C193.929 83.8671 193.92 83.7094 193.993 83.6123C195.159 82.0554 194.962 80.5143 194.131 78.8567C193.383 77.3653 192.841 75.771 192.136 74.0467C192.864 74.0467 193.449 74.0695 194.032 74.0398C194.539 74.0144 194.536 74.4415 194.645 74.715C195.176 76.0452 195.669 77.3899 196.248 78.9215C196.819 77.5573 197.379 76.4082 197.777 75.2055C198.081 74.2905 198.548 73.8558 199.521 74.0372C199.68 74.0669 199.855 74.0173 200.022 74.0042C200.022 74.2081 200.022 74.4121 200.022 74.616C198.843 77.3042 197.604 79.9654 196.455 82.6667C196.259 83.1296 196.103 83.6223 195.737 83.9969C195.125 83.9967 194.513 83.9967 193.9 83.9967Z" fill="#19346E"/>
<path d="M103.097 75.0222C104.977 73.4997 106.14 73.5403 107.646 75.1222C108.75 73.6982 110.638 73.495 111.621 74.682C112.017 75.1595 112.101 75.7148 112.102 76.2983C112.105 77.7589 112.052 79.2221 112.118 80.6798C112.152 81.4438 111.93 81.5953 111.181 81.6181C110.263 81.6463 109.941 81.4355 110.013 80.4752C110.105 79.2591 110.008 78.0303 110.045 76.8081C110.07 76.0263 109.827 75.5225 108.977 75.5757C108.19 75.6246 107.628 75.9311 107.653 76.8826C107.686 78.1722 107.573 79.4695 107.668 80.7529C107.737 81.6843 107.242 81.5912 106.639 81.5927C105.997 81.5948 105.46 81.6933 105.535 80.6978C105.638 79.347 105.534 77.9814 105.569 76.6229C105.589 75.8712 105.254 75.5351 104.546 75.5764C103.88 75.6155 103.237 75.7162 103.251 76.6386C103.269 78.0307 103.207 79.4258 103.271 80.8147C103.306 81.5815 102.936 81.6876 102.356 81.5946C101.826 81.5091 101.012 81.963 101.062 80.7795C101.142 78.9146 101.069 77.0429 101.097 75.1751C101.104 74.7184 100.756 73.9923 101.735 74.0358C102.404 74.0674 103.271 73.7628 103.097 75.0222Z" fill="#19346E"/>
<path d="M163.462 75.198C164.255 74.1997 165.09 73.9117 166.05 73.9359C167.04 73.9606 167.634 74.4753 167.772 75.4466C168.041 77.3376 167.83 79.2426 167.897 81.1397C167.903 81.3154 167.877 81.5421 167.692 81.5524C167.12 81.5846 166.505 81.6882 165.983 81.5227C165.562 81.3897 165.784 80.8055 165.779 80.4239C165.76 79.168 165.758 77.9107 165.787 76.655C165.802 75.9819 165.673 75.5005 164.855 75.5741C164.118 75.6403 163.418 75.6973 163.45 76.7412C163.492 78.0982 163.401 79.461 163.484 80.814C163.539 81.7186 163.006 81.6236 162.468 81.5842C161.937 81.5455 161.251 81.8686 161.28 80.7774C161.353 78.0294 161.341 75.2766 161.275 72.5278C161.253 71.6468 161.712 71.6914 162.271 71.7541C162.783 71.8113 163.582 71.3994 163.477 72.5228C163.402 73.3198 163.462 74.1287 163.462 75.198Z" fill="#19346E"/>
<path d="M1.25932 76.6094C1.25932 75.2172 1.27927 73.8248 1.24887 72.4333C1.23794 71.9236 1.3503 71.7279 1.91071 71.7417C3.47196 71.7809 5.03677 71.7885 6.59755 71.7355C7.21449 71.7142 7.24419 71.9924 7.22067 72.4513C7.2 72.8592 7.30001 73.2559 6.62035 73.1987C5.77725 73.1277 4.92251 73.1994 4.07394 73.1745C3.6575 73.1621 3.50522 73.2545 3.47909 73.7229C3.36126 75.8406 3.3413 75.8653 5.44846 75.8345C6.1343 75.824 6.53697 75.8979 6.43909 76.7328C6.38802 77.1683 6.2633 77.328 5.83236 77.2908C5.49527 77.2618 5.15341 77.2839 4.81347 77.2853C3.49191 77.2893 3.49191 77.29 3.49263 78.6286C3.49405 80.1312 3.49405 80.1305 5.04699 80.1297C5.48885 80.1297 5.93071 80.1442 6.37186 80.1283C6.86409 80.1105 7.24728 80.0602 7.24466 80.8137C7.24181 81.5329 6.97646 81.6067 6.37614 81.5908C4.95054 81.5521 3.52232 81.5516 2.09672 81.5969C1.46386 81.6169 1.20896 81.4887 1.23984 80.7833C1.30279 79.3954 1.25861 78.0018 1.25932 76.6094Z" fill="#19346E"/>
<path d="M124.049 75.0278C124.368 74.7749 124.589 74.5612 124.846 74.4043C125.701 73.8801 126.636 73.7291 127.55 74.1486C128.396 74.5373 128.545 75.3998 128.566 76.2208C128.606 77.7817 128.576 79.3444 128.578 80.9061C128.579 82.2124 127.588 81.3795 127.084 81.5723C126.511 81.7914 126.443 81.3795 126.456 80.8978C126.491 79.5764 126.491 78.2544 126.49 76.933C126.49 76.2269 126.448 75.5318 125.454 75.5676C124.76 75.5923 123.999 75.8998 124.078 76.9192C124.178 78.202 124.064 79.4999 124.118 80.7874C124.147 81.4652 123.951 81.7003 123.274 81.5927C122.716 81.5039 121.983 81.8916 122.039 80.7487C122.129 78.886 122.037 77.0142 122.086 75.1479C122.096 74.7676 121.65 74.0738 122.605 74.0325C123.762 73.9819 123.836 73.9943 124.049 75.0278Z" fill="#19346E"/>
<path d="M152.216 80.539C151.486 81.2679 150.792 81.7536 149.83 81.7515C148.661 81.7487 147.907 81.243 147.841 80.0616C147.738 78.1996 147.804 76.3276 147.787 74.4601C147.783 74.071 148.003 74.0598 148.305 74.0344C149.836 73.9043 149.836 73.8953 149.837 75.3846C149.838 76.5391 149.83 77.6946 149.839 78.8491C149.844 79.536 149.933 80.1561 150.865 80.1359C151.765 80.1167 152.244 79.6791 152.245 78.8007C152.247 77.4422 152.285 76.0823 152.232 74.725C152.189 73.6419 152.966 74.127 153.423 74.0491C153.964 73.9575 154.355 74.0125 154.33 74.7979C154.266 76.7998 154.313 78.8052 154.306 80.8094C154.305 81.1767 154.475 81.7154 153.764 81.5756C153.231 81.4709 152.388 82.0269 152.301 80.9191C152.293 80.8242 152.259 80.7299 152.216 80.539Z" fill="#19346E"/>
<path d="M8.10867 74.024C9.07863 74.1033 9.95689 73.765 10.5688 74.2163C11.159 74.6517 11.4918 75.4357 11.9405 76.0715C12.672 75.4998 12.9069 74.4993 13.6942 74.1059C14.1223 73.8922 14.7447 74.0679 15.3885 74.0679C14.8734 75.0938 14.1035 75.8488 13.4315 76.6602C12.9544 77.2362 12.849 77.631 13.3818 78.2682C14.2365 79.2898 14.9583 80.4218 15.6933 81.4463C13.3854 82.3686 12.6311 80.6023 11.6607 79.017C11.2202 79.5992 10.7473 80.0476 10.4935 80.5975C9.93242 81.8154 8.96745 81.6433 7.84854 81.5263C8.68879 80.433 9.40979 79.377 10.2591 78.4366C10.7741 77.8661 10.6781 77.5002 10.2652 76.9753C9.55898 76.0776 8.91305 75.1332 8.10867 74.024Z" fill="#19346E"/>
<path d="M67.6449 78.9922C68.1978 77.6682 68.7969 76.5205 69.1511 75.3016C69.4875 74.1428 70.0982 73.7874 71.2984 74.1519C70.6503 75.6744 69.997 77.2147 69.3392 78.7532C69.0615 79.4027 68.7216 80.0312 68.5044 80.6992C68.2845 81.3756 67.9343 81.6031 67.1988 81.6175C66.3956 81.6342 66.3612 81.0952 66.1716 80.6249C65.4057 78.7235 64.6868 76.8028 63.8739 74.922C63.5651 74.2084 63.6314 74.0733 64.4329 74.0066C65.5029 73.9178 65.9929 74.2903 66.2818 75.3024C66.6289 76.5198 67.1527 77.6862 67.6449 78.9922Z" fill="#19346E"/>
<path d="M190.183 71.8105C190.183 72.4003 190.207 72.7412 190.177 73.0767C190.12 73.7284 190.184 74.2326 191.053 74.0475C191.679 73.9138 191.657 74.3278 191.687 74.7694C191.724 75.32 191.507 75.508 190.993 75.4164C190.297 75.2924 190.152 75.6272 190.182 76.2575C190.23 77.2715 190.2 78.2891 190.192 79.3052C190.187 80.003 190.46 80.4441 191.216 80.3261C191.762 80.2406 191.94 80.526 192.022 80.9571C192.136 81.5523 191.638 81.4737 191.314 81.5585C189.344 82.0751 188.065 81.11 188.019 79.0633C187.999 78.1829 188.024 77.3017 188.016 76.4213C188.011 75.9211 188.219 75.2998 187.284 75.3879C186.882 75.4259 187.04 74.9746 187.044 74.7445C187.049 74.4772 186.927 74.0997 187.407 74.0418C187.634 74.0142 187.971 74.1961 188.016 73.7372C188.146 72.4297 189.414 72.5677 190.183 71.8105Z" fill="#19346E"/>
<path d="M41.3935 71.6997C41.3935 72.3832 41.4294 72.7199 41.3859 73.0473C41.2859 73.8029 41.5107 74.2011 42.3462 74.0468C42.9432 73.9366 42.8845 74.359 42.9037 74.7336C42.9251 75.1436 42.9037 75.5197 42.3433 75.4197C41.5085 75.2709 41.3266 75.6533 41.3783 76.4112C41.4432 77.3563 41.4026 78.3091 41.4019 79.2585C41.4011 79.9956 41.6941 80.4455 42.5006 80.3311C42.9679 80.2649 43.1886 80.4538 43.2748 80.8897C43.3857 81.4534 42.9707 81.4574 42.6122 81.5483C40.5504 82.0739 39.3021 81.1502 39.2427 79.0256C39.218 78.1445 39.2488 77.2621 39.2379 76.3801C39.2325 75.9207 39.4474 75.3385 38.568 75.395C38.1295 75.4233 38.2646 74.9556 38.2577 74.6759C38.2509 74.3756 38.2197 74.0076 38.692 74.0525C39.1567 74.0966 39.1581 73.8457 39.2683 73.4739C39.5508 72.5283 40.6284 72.5387 41.3935 71.6997Z" fill="#19346E"/>
<path d="M158.419 71.9591C158.419 72.296 158.439 72.5344 158.416 72.768C158.333 73.5823 158.359 74.2568 159.51 74.0543C160.114 73.9482 159.99 74.4517 160.016 74.8045C160.045 75.1932 159.975 75.508 159.484 75.4101C158.422 75.2 158.356 75.8057 158.406 76.6164C158.456 77.4265 158.383 78.2444 158.409 79.0566C158.434 79.8398 158.658 80.5095 159.657 80.331C160.245 80.2263 160.208 80.6567 160.321 80.9827C160.492 81.4739 160.068 81.4587 159.817 81.5283C157.595 82.1456 156.359 81.1881 156.355 78.8607C156.354 77.9113 156.356 76.9614 156.355 76.012C156.354 75.7157 156.435 75.3498 155.931 75.4208C155.403 75.4944 155.317 75.2197 155.326 74.7677C155.335 74.3199 155.321 73.9349 155.951 74.036C156.105 74.0607 156.255 74.0545 156.353 73.8465C156.904 72.6799 156.933 72.664 158.419 71.9591Z" fill="#19346E"/>
<path d="M132.672 71.6899C132.672 72.3355 132.701 72.6337 132.666 72.9245C132.57 73.7189 132.705 74.2507 133.703 74.0508C134.234 73.9447 134.308 74.2899 134.288 74.7279C134.27 75.1303 134.268 75.5277 133.707 75.4154C132.727 75.2191 132.6 75.7219 132.658 76.5322C132.721 77.4099 132.693 78.2957 132.67 79.1777C132.649 79.9664 132.936 80.4343 133.789 80.333C134.297 80.2724 134.496 80.4308 134.564 80.9626C134.646 81.6026 134.177 81.4766 133.878 81.5516C131.848 82.0594 130.649 81.1513 130.604 79.0673C130.582 78.0498 130.609 77.0315 130.598 76.0139C130.595 75.7818 130.749 75.3952 130.286 75.4325C129.76 75.4745 129.571 75.3112 129.604 74.7566C129.631 74.2875 129.656 73.9527 130.252 74.0361C130.423 74.0603 130.603 73.9947 130.603 73.7709C130.605 72.4243 131.962 72.6467 132.672 71.6899Z" fill="#19346E"/>
<path d="M80.3364 76.5564C80.3364 75.1972 80.3592 73.8373 80.3255 72.4788C80.3117 71.9311 80.4295 71.712 81.0382 71.7424C82.6947 71.825 82.4402 71.4675 82.4526 73.1153C82.4718 75.6637 82.4486 78.2126 82.4671 80.7615C82.4711 81.298 82.4566 81.7679 81.7418 81.5798C81.2082 81.4393 80.2231 82.1152 80.3252 80.7346C80.4279 79.3493 80.348 77.95 80.348 76.5571C80.344 76.5564 80.3397 76.5564 80.3364 76.5564Z" fill="#19346E"/>
<path d="M35.5845 75.1923C36.1195 74.6185 36.444 74.0425 37.1754 73.9551C37.6118 73.9034 37.8166 73.9936 37.8076 74.4601C37.7931 75.2013 37.9724 75.8889 36.8321 76.1486C35.8657 76.3684 35.5899 77.4002 35.5657 78.3663C35.5429 79.2494 35.5491 80.1333 35.5588 81.0172C35.5705 82.0739 34.7791 81.4602 34.3684 81.5573C34.0078 81.6421 33.4792 81.7881 33.4944 81.0103C33.5357 78.9382 33.5433 76.8637 33.4951 74.7915C33.4792 74.1151 33.7303 73.9311 34.31 74.0536C34.7877 74.155 35.666 73.6066 35.5405 74.7652C35.5298 74.8618 35.5595 74.9629 35.5845 75.1923Z" fill="#19346E"/>
<path d="M180.145 75.3556C180.524 74.8822 180.678 74.6667 180.856 74.4725C181.223 74.0736 181.731 73.7918 182.214 73.973C182.79 74.1885 182.353 74.8037 182.465 75.2274C182.633 75.8625 182.148 75.8903 181.729 76.0218C180.621 76.3696 180.278 77.255 180.241 78.3015C180.21 79.1832 180.21 80.0678 180.236 80.9496C180.249 81.4016 180.165 81.5937 179.635 81.5999C178.19 81.6165 178.191 81.6502 178.191 80.191C178.191 78.4928 178.177 76.7946 178.199 75.0966C178.205 74.6398 177.885 73.9352 178.875 74.0337C179.57 74.1033 180.512 73.7526 180.145 75.3556Z" fill="#19346E"/>
<path d="M183.829 77.8708C183.829 76.8217 183.878 75.769 183.813 74.7239C183.758 73.8302 184.359 74.0164 184.812 74.0617C185.241 74.1052 185.962 73.6629 185.944 74.6776C185.908 76.7761 185.916 78.8758 185.944 80.9742C185.95 81.4752 185.796 81.5861 185.314 81.5956C183.837 81.6245 183.837 81.6492 183.836 80.2067C183.835 79.4282 183.836 78.6497 183.836 77.8705C183.833 77.8708 183.83 77.8708 183.829 77.8708Z" fill="#19346E"/>
<path d="M184.749 73.3591C184.271 73.3765 183.82 73.4914 183.788 72.6042C183.75 71.4902 184.416 71.7872 184.996 71.7493C185.575 71.7113 185.958 71.6956 185.973 72.5332C185.992 73.5657 185.376 73.3523 184.749 73.3591Z" fill="#19346E"/>
<path d="M23.2817 75.6746C22.8232 74.356 21.6589 73.6996 20.3188 74.0446C19.7962 74.1789 19.331 74.535 18.8203 74.7995C18.7362 73.5512 17.7843 74.1058 17.1942 74.0728C16.4152 74.0286 16.7979 74.7198 16.7937 75.0524C16.7571 78.0333 16.7694 81.015 16.7675 83.9964C17.4479 83.9964 18.1283 83.9964 18.8079 83.9964C18.8079 82.9691 18.8079 81.9414 18.8079 80.8308C21.0194 82.3678 22.7807 81.8937 23.399 79.6644C23.767 78.3398 23.7373 76.9835 23.2817 75.6746ZM21.2971 79.4243C21.1111 79.9872 20.7029 80.2828 20.1796 80.2869C19.6213 80.2909 19.1636 80.0278 18.9863 79.3975C18.7326 78.4963 18.7369 77.5967 18.9037 76.6941C19.0334 75.9913 19.3821 75.5519 20.205 75.5725C20.9999 75.5925 21.2536 76.083 21.3824 76.7119C21.4631 77.106 21.4596 77.5165 21.4712 77.6509C21.4631 78.4289 21.4612 78.9277 21.2971 79.4243Z" fill="#19346E"/>
<path d="M99.4759 76.1072C98.9286 73.9812 97.1645 73.3378 95.335 74.5771C94.8765 74.8879 94.8896 74.7445 94.6981 74.338C94.3796 73.6609 93.6904 74.1685 93.1754 74.0645C92.7784 73.9845 92.8223 74.3648 92.8245 74.63C92.8444 77.7523 92.8658 80.8735 92.8865 83.9958C93.5669 83.9958 94.2472 83.9958 94.9269 83.9958C94.9269 82.9934 94.9269 81.9917 94.9269 80.8873C95.1875 81.0554 95.3481 81.158 95.5073 81.2615C97.0431 82.2584 98.6286 81.8009 99.3068 80.1034C99.8261 78.8078 99.8178 77.436 99.4759 76.1072ZM97.4298 79.1378C97.307 79.8453 96.9286 80.2579 96.2435 80.3028C95.5175 80.3503 95.1288 79.8446 94.9654 79.2197C94.8559 78.8016 94.8979 78.3434 94.8765 77.9804C94.94 77.4018 94.8461 76.9002 95.0288 76.3966C95.2673 75.7402 95.7009 75.5156 96.358 75.5754C97.001 75.6341 97.3175 76.0047 97.4196 76.6096C97.5617 77.4519 97.5774 78.2869 97.4298 79.1378Z" fill="#19346E"/>
<path d="M54.877 75.082C54.5703 72.8926 53.1785 71.7663 50.9789 71.7573C50.0959 71.7537 49.21 71.7986 48.3303 71.745C47.7416 71.7091 47.5713 71.8891 47.5879 72.4724C47.6271 73.8634 47.6003 75.2556 47.6003 76.6473C47.6017 76.6473 47.6039 76.6473 47.605 76.6473C47.605 77.9714 47.605 79.2947 47.605 80.619C47.605 80.6527 47.6098 80.6878 47.6036 80.7211C47.4651 81.4623 47.807 81.6318 48.4983 81.5919C49.5136 81.5333 50.5361 81.5967 51.554 81.576C53.2566 81.5409 54.2969 80.6819 54.7264 79.0243C55.0644 77.7178 55.0597 76.3862 54.877 75.082ZM52.6986 78.364C52.5104 79.7446 51.5234 80.4075 50.1659 80.1724C49.7343 80.0981 49.8075 79.8486 49.8049 79.6012C49.7951 78.6506 49.8008 77.6998 49.8013 76.7484C49.8013 75.9334 49.7799 75.1179 49.811 74.3036C49.8255 73.9261 49.596 73.3461 50.0039 73.2136C50.5194 73.0462 51.1537 73.0296 51.6633 73.4107C52.2976 73.8852 52.6057 74.5557 52.7029 75.3161C52.8316 76.3296 52.8366 77.3508 52.6986 78.364Z" fill="#19346E"/>
<path d="M146.379 80.4094C145.481 77.7708 144.569 75.1365 143.694 72.4903C143.508 71.9288 143.239 71.6484 142.625 71.7517C142.031 71.8516 141.332 71.4583 141.027 72.4627C140.206 75.1619 139.267 77.8252 138.38 80.5044C138.268 80.8413 137.929 81.3738 138.192 81.4944C138.606 81.6839 139.24 81.6948 139.654 81.5053C140.096 81.3028 140.143 80.6675 140.235 80.1834C140.379 79.418 140.777 79.0992 141.558 79.2471C141.821 79.2967 142.112 79.3126 142.369 79.254C143.559 78.9797 144.103 79.5688 144.248 80.6504C144.357 81.464 144.772 81.7644 145.46 81.5818C146.777 81.5849 146.779 81.5842 146.379 80.4094ZM142.879 77.8399C142.282 77.8323 141.684 77.8378 140.989 77.8378C141.364 76.6336 141.708 75.5292 142.116 74.2163C142.539 75.4121 142.873 76.3822 143.226 77.3454C143.357 77.7041 143.252 77.8447 142.879 77.8399Z" fill="#19346E"/>
<path d="M28.3056 73.8551C25.964 73.8757 24.5467 75.3686 24.5279 77.8018C24.5127 79.8018 25.6081 81.8493 28.3709 81.7652C30.8154 81.6916 32.0871 80.4162 32.0885 77.8536C32.0902 75.2762 30.7252 73.8337 28.3056 73.8551ZM29.5982 79.7721C29.3908 80.28 28.9142 80.5245 28.3733 80.5328C27.8364 80.5411 27.3877 80.3303 27.1159 79.8267C26.7824 79.208 26.7125 78.5412 26.7403 77.7966C26.6921 77.2043 26.7776 76.5711 27.0361 75.969C27.2746 75.413 27.7067 75.1217 28.3106 75.1224C28.8993 75.1231 29.3749 75.3567 29.6141 75.9208C30.1564 77.2033 30.118 78.5006 29.5982 79.7721Z" fill="#19346E"/>
<path d="M173.022 73.8594C170.642 73.8242 169.212 75.3261 169.214 77.8579C169.217 80.3476 170.569 81.7496 172.97 81.7517C175.481 81.7545 176.755 80.4303 176.757 77.8166C176.759 75.3259 175.408 73.895 173.022 73.8594ZM174.294 79.7142C174.012 80.2239 173.609 80.5444 173.006 80.5463C172.409 80.5485 171.945 80.2776 171.72 79.7375C171.236 78.5725 171.257 77.3698 171.608 76.1737C171.81 75.4833 172.278 75.0797 173.026 75.0989C173.767 75.1181 174.175 75.5543 174.416 76.2259C174.617 76.7867 174.523 77.3633 174.604 77.8035C174.531 78.5307 174.604 79.153 174.294 79.7142Z" fill="#19346E"/>
<path d="M87.5704 73.853C85.2245 73.8902 83.8245 75.4016 83.8658 77.8541C83.8209 80.4079 85.4535 81.8773 87.8303 81.7678C90.1636 81.6603 91.4887 80.2406 91.4409 77.7204C91.3941 75.2964 89.9127 73.8159 87.5704 73.853ZM88.9021 79.7536C88.6092 80.2641 88.1811 80.5411 87.5882 80.5357C87.0264 80.5302 86.5812 80.252 86.3826 79.7572C85.8744 78.4915 85.887 77.1896 86.3619 75.9173C86.5667 75.3703 87.0382 75.0768 87.6393 75.1022C88.2163 75.1269 88.6422 75.3924 88.9249 75.9303C89.2392 76.5284 89.2551 77.1551 89.2435 77.7974C89.2668 78.4728 89.2537 79.1411 88.9021 79.7536Z" fill="#19346E"/>
<path d="M78.2387 78.2711C78.586 78.2773 78.8158 78.2276 78.8027 77.7846C78.7635 76.3848 78.5602 75.0613 77.2075 74.2747C76.0156 73.5817 74.0627 73.7849 73.0024 74.6776C71.8037 75.6868 71.4473 78.2849 72.2282 79.9698C72.7024 80.9935 73.5433 81.5405 74.5698 81.7031C75.6693 81.8767 76.777 81.7575 77.8532 81.3416C78.6535 81.0322 78.2936 80.5113 78.0945 80.1393C77.9271 79.8273 77.5436 80.1414 77.2757 80.2193C75.464 80.7414 74.3439 80.3689 73.9786 79.1087C73.8206 78.5638 73.8241 78.1897 74.5748 78.2545C75.1476 78.3041 75.7275 78.2642 76.3043 78.2642C76.3043 78.2656 76.3043 78.2663 76.3043 78.2678C76.9497 78.2678 77.5942 78.2595 78.2387 78.2711ZM75.3531 77.2129C74.9008 76.9043 74.0964 77.5821 73.9558 76.7431C73.8082 75.8613 74.6321 75.0366 75.4303 75.0648C76.1541 75.0902 76.849 75.8481 76.7628 76.6602C76.6504 77.7262 75.7674 76.8326 75.3531 77.2129Z" fill="#19346E"/>
<path d="M118.245 74.0138C115.351 73.3918 113.415 75.0064 113.56 78.1892C113.65 80.154 114.55 81.3107 116.115 81.6628C117.147 81.895 118.215 81.8356 119.226 81.4693C119.659 81.3121 120.262 81.257 120.021 80.4731C119.757 79.6134 119.318 80.1975 118.949 80.296C117.43 80.701 116.253 80.3496 115.856 79.3542C115.509 78.4862 115.641 78.2725 116.537 78.2649C117.047 78.2609 117.557 78.2642 118.066 78.2642C118.066 78.2663 118.066 78.2682 118.066 78.2697C118.679 78.2697 119.291 78.2718 119.902 78.2682C120.166 78.2668 120.42 78.3138 120.529 77.9321C120.965 76.3848 119.816 74.3512 118.245 74.0138ZM117.922 77.1469C117.659 77.1111 117.387 77.1415 117.119 77.1415C117.119 77.1455 117.119 77.1491 117.119 77.1531C117.051 77.1531 116.976 77.1731 116.918 77.1496C116.532 76.9931 115.855 77.485 115.753 76.8416C115.64 76.1341 115.919 75.4618 116.71 75.1586C117.338 74.9174 117.823 75.0869 118.173 75.6306C118.313 75.849 118.36 76.1239 118.472 76.3635C118.745 76.9518 118.635 77.2433 117.922 77.1469Z" fill="#19346E"/>
<path d="M60.7445 74.0094C57.9705 73.3653 55.8855 75.1075 56.0088 77.9659C56.0983 80.025 57.0759 81.4098 58.7827 81.6971C59.9228 81.8894 61.0602 81.7707 62.1654 81.3149C62.7486 81.0737 62.5391 80.7389 62.4611 80.3683C62.3397 79.7897 61.9544 80.0542 61.6981 80.1727C61.2479 80.3806 60.7661 80.3821 60.3043 80.4303C59.1904 80.5473 58.339 79.9329 58.1969 78.9892C58.1314 78.5552 58.1081 78.1846 58.7725 78.2563C59.3771 78.3218 59.9941 78.27 60.6063 78.27C60.6063 78.2686 60.6063 78.2665 60.6063 78.2653C61.2515 78.2653 61.8974 78.2639 62.5433 78.266C62.7894 78.2667 62.9812 78.257 63.0672 77.9353C63.4772 76.4014 62.2868 74.367 60.7445 74.0094ZM61.0472 76.7285C60.9011 77.7207 60.0297 76.8608 59.5933 77.2534C59.1666 76.8786 58.2532 77.7549 58.1926 76.6416C58.1458 75.777 58.9075 74.9978 59.6629 75.026C60.4212 75.0545 61.1733 75.8764 61.0472 76.7285Z" fill="#19346E"/>
<path d="M96.0183 25.1354C96.0183 19.7316 96.0327 14.3276 96.0016 8.92387C95.9976 8.19976 96.1332 7.94691 96.9253 7.95261C102.368 7.98988 107.811 7.983 113.255 7.95736C113.902 7.95451 114.157 8.07867 114.114 8.78189C114.054 9.78639 114.066 10.8011 114.135 11.8056C114.183 12.5131 113.891 12.6439 113.266 12.6384C110.527 12.613 107.787 12.6501 105.048 12.6088C104.387 12.599 104.192 12.7533 104.204 13.4314C104.248 15.7723 104.251 18.1153 104.202 20.4555C104.188 21.1514 104.408 21.2807 105.052 21.272C107.683 21.2354 110.315 21.2817 112.946 21.2404C113.612 21.2299 113.825 21.3947 113.787 22.0718C113.731 23.077 113.739 24.0903 113.799 25.0955C113.836 25.708 113.591 25.7982 113.061 25.794C110.43 25.7726 107.797 25.816 105.167 25.7657C104.421 25.7512 104.192 25.9146 104.203 26.6938C104.249 29.9715 104.253 33.2509 104.201 36.5279C104.188 37.3306 104.39 37.5675 105.194 37.553C107.861 37.507 110.53 37.5592 113.196 37.5165C113.922 37.5048 114.235 37.6411 114.179 38.4457C114.105 39.4853 114.139 40.5345 114.171 41.5781C114.186 42.0886 114.037 42.2484 113.504 42.2465C107.88 42.2287 102.257 42.2237 96.6338 42.2588C95.8087 42.2636 96.0244 41.7607 96.0237 41.3467C96.0154 35.9429 96.0183 30.5391 96.0183 25.1354Z" fill="#19346E"/>
<path d="M162.521 27.4288C162.517 27.4288 162.514 27.4288 162.511 27.4288C162.511 22.9605 162.478 18.4924 162.524 14.0254C162.548 11.5618 161.426 9.77979 159.33 8.70977C154.514 6.25112 149.581 6.32827 144.733 8.5837C142.538 9.60529 141.283 11.4676 141.282 13.9951C141.278 23.1115 141.289 32.2272 141.271 41.3434C141.269 42.015 141.388 42.2816 142.141 42.2631C144.339 42.2088 146.54 42.2045 148.738 42.2679C149.511 42.29 149.611 42.0074 149.607 41.3467C149.581 37.4192 149.608 33.4917 149.579 29.5641C149.574 28.9124 149.728 28.6762 150.414 28.714C151.456 28.7726 152.508 28.7733 153.549 28.7064C154.303 28.6582 154.423 28.9552 154.417 29.633C154.384 33.5598 154.412 37.4873 154.384 41.4148C154.38 42.0354 154.467 42.2835 155.186 42.2636C157.348 42.2042 159.513 42.2064 161.675 42.2615C162.405 42.28 162.542 42.0492 162.538 41.3721C162.507 36.725 162.521 32.0769 162.521 27.4288ZM153.617 24.2273C152.61 24.2038 151.6 24.1675 150.597 24.2266C149.853 24.2708 149.589 24.0462 149.612 23.2808C149.661 21.6281 149.627 19.9734 149.628 18.32C149.628 16.774 149.678 15.226 149.615 13.6829C149.54 11.8401 150.52 11.3861 151.935 11.3047C153.491 11.2145 154.332 12.015 154.372 13.5836C154.412 15.1282 154.371 16.6755 154.372 18.2215C154.374 19.9472 154.353 21.6737 154.404 23.398C154.423 24.0227 154.216 24.2411 153.617 24.2273Z" fill="#19346E"/>
<path d="M138.178 15.2239C138.14 12.5571 136.852 10.5346 134.383 9.30832C132.738 8.49067 130.993 8.10962 129.197 8.0676C125.487 7.98213 121.775 8.04006 118.066 7.95246C117.14 7.93038 117.02 8.25825 117.023 9.04717C117.051 14.4125 117.038 19.7782 117.037 25.1435C117.037 30.5088 117.054 35.8746 117.018 41.2399C117.014 42.0191 117.157 42.2796 118.004 42.2644C121.173 42.2086 124.345 42.247 127.515 42.2484C129.064 42.2492 130.597 42.1333 132.114 41.7822C136.101 40.8598 138.193 38.3914 138.217 34.344C138.253 27.9702 138.27 21.5964 138.178 15.2239ZM127.217 38.0712C125.22 38.3392 125.211 38.2986 125.21 36.3117C125.207 32.5316 125.209 28.7515 125.21 24.9714C125.21 20.9392 125.226 16.907 125.196 12.8755C125.19 12.1611 125.326 11.7829 126.131 11.9089C126.483 11.964 126.855 11.8869 127.209 11.9325C129.152 12.1791 130.123 12.7102 130.096 14.9685C130.017 21.5916 130.006 28.2169 130.099 34.8402C130.134 37.4104 129.232 37.8003 127.217 38.0712Z" fill="#19346E"/>
<path d="M82.2699 17.3157C82.1333 17.1289 81.9976 16.9427 81.7727 16.6351C81.5546 17.6887 81.3771 18.6075 80.9787 19.4574C80.5633 20.3444 80.0157 21.1369 79.3396 21.8468C79.1118 22.0856 78.8839 22.2997 79.0785 22.7411C80.0912 25.04 80.8882 27.4084 81.1961 29.9176C81.2006 29.957 81.2674 29.9881 81.3408 30.0563C82.4531 29.0914 83.2543 27.8998 83.8948 26.5881C83.9594 26.5675 84.0528 26.5665 84.0818 26.5228C84.1507 26.4191 84.0891 26.3322 83.9934 26.2707C84.1226 26.1135 84.2523 25.9557 84.3816 25.7983C84.383 25.8597 84.4141 25.8961 84.4742 25.9072C84.0202 26.4908 84.0269 27.256 83.6751 27.8901C83.1215 28.8882 82.5132 29.8388 81.7073 30.6507C81.4498 30.9102 81.2971 31.1676 81.3044 31.5562C81.3394 33.462 81.188 35.3456 80.564 37.1689C80.5091 37.3299 80.2931 37.6369 80.6604 37.7784C80.8851 37.865 80.7709 37.9904 80.6789 38.0654C79.8924 38.7038 79.5006 39.6425 78.8818 40.408C78.6385 40.709 78.6956 40.3856 78.6362 40.2997C78.6376 40.2375 78.6393 40.175 78.6407 40.1128C78.5865 40.1299 78.5316 40.147 78.4775 40.1641C78.2668 40.1257 78.1888 40.3244 78.0449 40.4058C77.7866 40.2938 77.7482 40.1508 78.0316 40.0433C79.2389 39.5851 79.517 38.5179 79.7833 37.4301C80.2026 35.7231 80.3704 33.9997 80.2376 32.2511C80.1076 32.2511 80.0394 32.2295 80.0059 32.254C77.3918 34.2138 74.4233 35.3603 71.2535 36.0099C70.6643 36.1307 70.5396 36.3776 70.5361 36.9094C70.522 38.8567 70.3743 40.7928 69.7858 42.6653C69.6017 43.2503 69.8438 43.223 70.2838 43.1088C72.5855 42.5095 74.8167 41.728 76.9395 40.6439C77.1414 40.5409 77.4745 40.0796 77.6748 40.69C75.9436 41.6458 74.1384 42.4385 72.27 43.0815C71.5918 43.3151 70.9017 43.5508 70.1968 43.6612C69.621 43.7517 69.3012 43.9713 69.1359 44.5325C68.8168 45.6099 68.1386 46.4812 67.3751 47.2754C66.9921 47.6728 66.4571 47.721 65.8043 47.6683C66.7688 46.8252 67.1815 45.7685 67.533 44.6769C67.6578 44.2906 67.5901 44.1444 67.1368 44.2009C63.7801 44.6147 60.4471 44.373 57.1414 43.7329C56.4848 43.6061 56.3378 43.7856 56.3957 44.3906C56.4855 45.3279 56.4537 46.2808 56.7927 47.1825C56.7787 47.287 56.7651 47.391 56.7511 47.4954C56.214 47.4078 55.774 47.0869 55.2842 46.8843C55.2804 46.8236 55.2768 46.7635 55.273 46.7027C55.0364 45.6334 54.672 44.5857 54.7373 43.4675C54.7632 43.0254 54.3974 43.0411 54.1356 42.9594C51.2967 42.0734 48.6121 40.8742 46.1702 39.1525C45.8659 38.9374 45.5513 38.3398 45.2294 38.5962C44.8978 38.8603 45.3245 39.3733 45.4409 39.77C45.5513 40.1482 45.6725 40.5293 45.9492 40.8313L45.9419 40.8002C45.3876 40.996 45.2178 40.5183 45.0722 40.2062C44.6781 39.3607 44.3324 38.4887 44.034 37.6055C43.8656 37.1079 43.3841 36.9099 43.1555 36.4902C43.3278 36.3805 43.6297 36.6578 43.7202 36.3019C43.4739 34.1129 43.5242 31.9408 44.1067 29.8032C44.1875 29.5059 44.1172 29.2885 43.9124 29.075C43.0717 28.1978 42.2801 27.2814 41.6826 26.2149C41.5247 25.9324 41.3859 25.9117 41.1358 26.1363C40.5526 26.6613 40.0228 27.2315 39.5094 27.8234C39.1621 28.2232 39.3246 28.6553 39.384 29.0596C39.4931 29.802 39.68 30.5323 39.8425 31.3034C39.108 31.0669 38.7934 30.3542 38.162 29.9708C37.6463 31.126 37.3481 32.2747 37.3807 33.5101C36.839 32.0137 36.5473 30.4898 36.8516 28.9039C36.9561 28.3595 36.9481 27.8649 36.7618 27.3236C36.4271 26.3514 36.2789 25.3334 36.3924 24.2959C36.5475 22.8774 36.6625 21.4522 37.0847 20.078C37.1944 20.0794 37.3044 20.0809 37.4149 20.0825C37.317 20.6402 37.2108 21.1962 37.1269 21.7561C37.107 21.8902 36.998 22.1053 37.2255 22.1566C37.4251 22.2019 37.4132 21.9237 37.5565 21.8548C37.6759 21.86 37.7962 21.8653 37.9156 21.8705C37.3436 23.0295 37.5075 23.8481 38.5352 24.8367C38.8854 24.3593 39.4018 23.9312 39.5458 23.4025C39.8819 22.1722 40.0511 20.8961 40.2573 19.6333C40.2936 19.4109 40.0504 19.4546 39.896 19.4619C39.7491 19.4123 39.7237 19.2891 39.7135 19.1571C40.4005 18.4088 41.1892 17.7822 42.0373 17.2269C42.1212 17.31 42.205 17.3938 42.2889 17.4769C41.4052 18.3979 40.9719 19.5852 40.4376 20.7034C40.2639 21.0659 40.2848 21.5324 40.534 21.9424C40.6854 22.1915 40.7507 22.3363 41.0481 22.0811C42.501 20.8361 44.091 19.7874 45.7746 18.8815C46.1619 18.673 46.13 18.5182 45.9127 18.1502C45.5321 17.5045 45.1209 16.848 45.0282 16.0703C45.0482 15.7291 44.6096 15.948 44.5631 15.6892C44.8524 15.4653 45.1662 15.2894 45.5247 15.1989C45.6589 15.2206 45.8088 15.2115 45.8697 15.3753C45.5045 16.1429 46.0685 16.7087 46.3624 17.2841C46.8714 18.2808 46.927 18.2526 47.9754 17.7846C48.4184 17.5873 48.8577 17.3812 49.3043 17.1937C50.5479 16.6709 50.5487 16.6738 50.0374 15.3962C50.0011 15.3058 49.921 15.2056 50.1895 15.0344C51.698 15.8055 52.943 15.1909 53.9557 13.897C54.1235 13.6826 54.6183 13.5781 54.3202 13.1361C54.0657 12.7579 53.7429 12.6475 53.2785 12.7921C52.6627 12.9841 52.0215 13.0952 51.3915 13.2415C51.3915 13.1391 51.3915 13.0361 51.3922 12.9338C51.4146 12.9181 51.4345 12.8953 51.459 12.8877C54.8017 11.8652 58.2371 11.3232 61.6978 10.9115C62.1986 10.8521 62.0459 11.1221 61.9917 11.4039C61.838 12.2026 61.5361 12.981 61.5762 13.9511C65.6825 11.5433 69.9512 9.80231 74.6546 8.62308C73.8621 8.19597 73.2747 7.87997 72.6876 7.56421C72.7397 7.46118 72.7922 7.35743 72.8442 7.25415C72.9896 7.21925 73.1552 7.44836 73.2499 7.28454C73.302 7.1948 73.1825 7.00582 73.1402 6.86123C73.1499 6.72116 73.1601 6.58085 73.1699 6.44006C73.2219 6.44885 73.2737 6.45858 73.3257 6.4676L73.302 6.46024C73.8035 7.50201 74.5418 8.30803 75.68 8.67958C75.4329 9.063 74.7941 8.74273 74.8542 9.36761C74.9024 9.87258 75.0523 10.2323 75.5605 10.4998C77.4904 11.5164 79.1925 12.8424 80.6378 14.4848C80.7469 14.6087 80.8574 14.7279 81.0638 14.6738C81.1885 14.4224 81.055 14.1607 81.0683 13.9034C81.1469 13.9012 81.2256 13.8982 81.3035 13.896C81.4779 15.009 81.7822 16.0703 82.5136 16.9646C82.4331 17.0807 82.3516 17.198 82.2699 17.3157ZM69.2784 11.0091C69.0663 10.8289 68.857 10.8659 68.6159 10.9742C67.9813 11.2605 67.3418 11.5392 66.6926 11.7885C66.2376 11.9628 66.174 12.1874 66.3662 12.6413C66.7194 13.4749 67.0199 14.3343 67.2803 15.2018C67.4169 15.6579 67.6269 15.6994 68.0417 15.6082C68.886 15.4221 69.7283 15.1997 70.4731 14.7806C72.2783 13.7654 72.3772 14.0413 70.847 12.4796C70.7171 12.3469 70.5591 12.2408 70.4144 12.1223C70.4969 11.6107 70.7439 11.8206 70.9568 12.0112C71.3366 12.35 71.7189 12.6897 72.0683 13.0589C72.3482 13.3547 72.5603 13.3792 72.8518 13.0677C73.4944 12.3811 73.8676 11.5744 74.0619 10.6636C74.1517 10.2446 74.0182 10.0364 73.6265 9.85691C72.7197 9.44144 70.1265 10.1022 69.2784 11.0091ZM68.7358 31.2899C68.6684 30.2331 68.5786 28.7768 68.4807 27.3213C68.4614 27.0328 68.4954 26.7356 68.0027 26.7873C65.0829 27.095 62.1751 26.9898 59.2999 26.384C58.7737 26.2736 58.6758 26.4647 58.5951 26.8927C58.1335 29.3293 57.7239 31.7749 57.3707 34.2295C57.2966 34.7449 57.4745 34.9332 57.9679 34.9926C59.2531 35.1462 60.53 35.3686 61.8173 35.5013C63.8927 35.7157 65.9732 35.6386 68.0524 35.5111C68.5465 35.4807 68.7631 35.3005 68.7453 34.7725C68.7113 33.7459 68.7358 32.7181 68.7358 31.2899ZM57.1236 26.3092C57.1631 25.9006 57.1666 25.8894 56.6473 25.7256C54.0852 24.9175 51.6775 23.7895 49.5065 22.2012C49.0473 21.8653 48.8677 21.9624 48.6391 22.3978C47.6502 24.2821 46.7522 26.1997 46.0564 28.218C45.8153 28.9172 45.9606 29.274 46.4963 29.7018C48.6562 31.4266 50.9965 32.8186 53.5994 33.7654C55.398 34.4194 55.4018 34.4349 55.7512 32.5774C56.1494 30.4601 56.6088 28.358 57.1236 26.3092ZM64.7707 43.7692C65.5031 43.7032 66.47 43.6097 67.439 43.5335C67.7433 43.5098 67.9072 43.4319 67.9732 43.0788C68.351 41.0582 68.4904 39.0139 68.6432 36.9693C68.6707 36.606 68.5757 36.5265 68.1987 36.5509C64.689 36.7808 61.1847 36.8446 57.7425 35.937C57.2676 35.8116 57.1274 35.9814 57.0768 36.4137C56.8557 38.3156 56.6383 40.2156 56.53 42.1301C56.4898 42.8419 56.7369 43.0608 57.3574 43.1593C59.7349 43.5387 62.1226 43.7849 64.7707 43.7692ZM80.1715 30.943C79.8161 28.2313 79.1742 25.7916 78.1511 23.4543C78.0301 23.1777 77.8974 23.1815 77.6695 23.3446C75.4643 24.9248 72.9965 25.8799 70.3453 26.3908C70.0654 26.445 69.9127 26.5428 69.9609 26.8714C70.3386 29.4399 70.5567 32.022 70.5434 34.6203C70.5413 34.9947 70.6762 35.1504 71.0739 35.0645C74.2035 34.3831 77.1709 33.319 79.7952 31.4259C80.0373 31.2514 80.1981 31.0712 80.1715 30.943ZM45.4373 30.5092C44.9617 32.3831 44.8303 34.1488 44.7688 35.932C44.7227 37.2549 45.2465 38.1077 46.3626 38.818C48.7161 40.3151 51.2131 41.4682 53.8657 42.2959C54.0726 42.3604 54.5869 42.775 54.5751 42.0221C54.5425 40.0193 54.8421 38.0483 55.1813 36.0825C55.2704 35.565 55.1991 35.2668 54.5869 35.111C53.3433 34.795 52.1503 34.3102 50.9734 33.7927C49.0264 32.9354 47.2128 31.8528 45.4373 30.5092ZM65.4192 25.624C66.2034 25.624 66.9886 25.6226 67.7727 25.6247C68.189 25.6254 68.3084 25.4578 68.2581 25.0233C67.9628 22.4999 67.5613 19.9949 67.0819 17.4997C66.9907 17.0244 66.8318 16.9012 66.3533 16.9375C64.7054 17.0615 63.0567 17.0429 61.4377 16.6529C60.9799 16.5425 60.8909 16.7656 60.807 17.1282C60.2445 19.5723 59.6821 22.0163 59.0825 24.4516C58.9654 24.9269 59.0811 25.0485 59.5337 25.1316C61.4821 25.4868 63.4396 25.7002 65.4192 25.624ZM77.4973 22.0179C77.4669 21.9253 77.4519 21.8444 77.4156 21.7732C76.1831 19.3468 74.7592 17.0444 73.029 14.9361C72.8109 14.6707 72.6774 14.721 72.4413 14.8834C71.1851 15.7488 69.8006 16.3302 68.3039 16.6149C67.8965 16.6927 67.8252 16.8513 67.9293 17.2058C68.6743 19.7418 69.2375 22.3194 69.6834 24.9229C69.745 25.2833 69.8726 25.3768 70.202 25.3018C72.6551 24.7434 75.005 23.9353 77.0706 22.4491C77.2362 22.3315 77.4609 22.2523 77.4973 22.0179ZM81.1123 16.2991C81.2184 15.8423 81.0804 15.6733 80.941 15.5057C79.3902 13.6451 77.5374 12.1458 75.4747 10.8882C75.0896 10.6532 75.0148 10.8393 74.9606 11.1442C74.7737 12.2061 74.3061 13.1285 73.5688 13.91C73.3618 14.1287 73.3424 14.2749 73.5583 14.5145C75.3474 16.4959 76.9115 18.6405 78.1869 20.9911C78.3145 21.2262 78.4399 21.3596 78.7198 21.0704C80.0751 19.6673 80.8288 17.981 81.1123 16.2991ZM58.3829 16.6329C58.2323 16.948 57.9636 17.0349 57.7536 17.1794C55.7294 18.5735 53.8113 20.0975 52.0077 21.7689C51.5797 22.1656 51.536 22.3605 52.1132 22.6447C53.6543 23.4025 55.2512 24.0046 56.882 24.534C57.4267 24.7111 57.6672 24.5302 57.7916 24.0253C58.3815 21.6286 59.1184 19.2741 59.9568 16.9546C60.1549 16.4067 59.9501 16.2547 59.5056 16.1263C58.4713 15.8267 57.4823 15.4034 56.5665 14.8471C54.8281 13.7904 54.8407 13.769 53.5733 15.3787C53.56 15.3958 53.5688 15.4314 53.5635 15.5396C55.1493 15.9069 56.7868 16.1346 58.3829 16.6329ZM60.8968 11.4162C59.6985 11.5943 58.4993 11.7662 57.3025 11.9523C56.7297 12.0414 56.3988 12.5034 56.0033 12.8547C55.7591 13.072 55.9403 13.204 56.1361 13.3493C57.3099 14.2206 58.6188 14.8101 59.9974 15.2714C60.3974 15.4048 60.5621 15.2609 60.6823 14.8991C60.9968 13.953 61.2218 12.986 61.4377 12.0145C61.5513 11.5088 61.451 11.2857 60.8968 11.4162ZM64.9339 15.909C65.2047 15.909 65.6893 15.9136 66.1737 15.9076C66.5106 15.9031 66.7346 15.8587 66.5959 15.3915C66.3279 14.4919 66.1276 13.5731 65.9117 12.6589C65.8561 12.4231 65.7834 12.1983 65.5014 12.3452C64.2177 13.014 62.9348 13.6866 61.675 14.3993C61.3166 14.6019 61.2973 15.0698 61.336 15.4197C61.3783 15.8001 61.8088 15.6897 62.0699 15.7229C62.9491 15.8364 63.8262 16.0026 64.9339 15.909ZM46.9458 22.5398C45.4062 23.1153 44.0438 23.9597 42.7089 24.8526C42.4248 25.0433 42.4188 25.3265 42.5932 25.5511C43.1201 26.2275 43.6796 26.8792 44.2345 27.5333C44.4267 27.7595 44.6878 27.8106 44.7961 27.4939C45.3779 25.7975 46.1369 24.18 46.9458 22.5398ZM49.9961 21.2081C50.4546 21.2993 50.5586 22.1136 51.072 21.8126C51.302 21.6777 51.3554 21.017 51.167 20.8522C50.7477 20.4866 50.4011 21.0286 49.9961 21.2081Z" fill="#19346E"/>
<path d="M41.1574 10.9822C43.0294 8.14584 45.7103 6.30232 48.7102 4.85719C49.3639 4.54214 50.0503 4.29357 50.709 3.98802C51.0756 3.81827 51.5861 3.78408 51.5801 3.18343C51.5787 3.03575 51.7374 2.9802 51.8792 2.96382C53.5555 2.7651 55.2293 2.86363 56.9041 2.85769C56.9198 2.93248 56.9352 3.00821 56.9516 3.08324C55.9574 3.59035 54.963 4.09699 53.9681 4.60411C55.0395 4.72424 55.7629 3.81352 56.7713 3.79144C56.5791 4.16228 56.1154 4.1637 55.8593 4.46546C55.7524 4.59224 55.4505 4.61455 55.5158 4.83321C55.5909 5.08083 55.8802 4.92366 56.0634 4.98966C56.1235 5.51459 55.7094 5.24322 55.5389 5.2596C54.638 5.34792 54.219 5.69336 53.9971 6.65156C55.3623 6.33414 56.7062 6.02122 58.0432 5.70974C57.9489 5.31682 57.3842 5.63567 57.4607 5.15514C58.5328 5.45832 59.6095 5.6105 60.7165 5.23895C60.6875 4.81635 60.4003 4.51531 60.1986 4.17486C60.0494 3.92273 59.8002 3.69363 59.752 3.42582C59.6667 2.95195 59.7164 2.94316 59.2446 2.97118C59.2267 2.82208 59.2082 2.67299 59.1904 2.52484C59.7038 2.3418 60.1912 2.89402 60.7101 2.5804C60.6588 3.33679 61.2548 3.47093 61.7703 3.61029C62.5307 3.81566 63.3299 3.86623 64.072 4.1554C64.0713 4.26508 64.0706 4.375 64.0699 4.48469C63.089 4.30307 62.1081 4.11836 61.1263 3.94125C60.9802 3.91466 60.7835 3.79951 60.7063 4.00654C60.6706 4.1015 60.759 4.25796 60.8205 4.37073C61.0372 4.7646 61.2672 5.15087 61.5344 5.61216C57.9394 6.05921 54.5397 6.90393 51.191 7.96421C51.0939 7.88421 50.9967 7.80467 50.8993 7.72466C52.0909 7.2826 53.3255 6.89491 53.779 5.46307C52.6542 5.27409 51.8536 5.96425 50.9891 6.4716C50.6641 6.66224 50.6781 6.65393 50.3762 6.36049C50.3021 6.28784 50.112 6.27597 49.9977 6.31087C49.1238 6.57772 48.2453 6.88636 47.4088 7.20734C45.3513 7.99698 43.5038 9.23248 41.8639 10.7341C41.6487 10.9312 41.4593 11.0831 41.1574 10.9822Z" fill="#19346E"/>
<path d="M45.2525 41.3341C42.0174 40.0839 39.255 38.2649 37.8007 34.9207C37.6634 34.6047 37.2153 34.1073 37.5075 33.9449C37.9757 33.6847 38.081 34.3675 38.3074 34.6427C39.2474 35.7839 40.3478 36.7471 41.633 37.4389C42.6087 37.9638 43.4092 38.5935 44.0245 39.5137C44.4201 40.1062 44.9289 40.6221 45.3876 41.1725C45.3423 41.2259 45.2978 41.28 45.2525 41.3341Z" fill="#19346E"/>
<path d="M64.0732 4.15569C64.899 4.45887 65.4518 4.21267 65.759 3.37033C65.8369 3.15594 65.7464 3.02703 65.6877 2.86393C66.0839 2.86321 66.4809 2.87057 66.8772 2.8587C67.1332 2.85134 67.1969 2.97812 67.1651 3.19915C66.6954 3.18515 65.7034 3.91472 65.6677 4.29885C65.6513 4.47454 65.7687 4.52724 65.9074 4.55905C67.6651 4.96384 69.2701 6.05025 71.186 5.73947C71.3499 5.71288 71.606 5.9078 71.6623 5.62528C71.7151 5.35985 71.4628 5.27889 71.2594 5.20031C71.8842 5.21147 72.2508 5.55928 72.4541 6.11767C71.9467 6.06877 71.4405 6.0182 70.933 5.97238C70.7446 5.95528 70.5353 5.9256 70.5962 6.23495C70.5874 6.36102 70.5776 6.48709 70.5686 6.61315C68.4391 5.79313 66.2666 5.10487 64.0718 4.48427C64.0718 4.3753 64.0725 4.26561 64.0732 4.15569Z" fill="#19346E"/>
<path d="M40.1796 12.5803C40.5119 12.7835 40.2908 13.0874 40.3295 13.3462C40.3578 13.5361 40.1209 13.8253 40.5053 13.9053C40.5647 14.0226 40.6241 14.1397 40.6835 14.2567C40.1656 14.8968 39.6484 15.5359 39.1305 16.1757C38.9911 16.1778 38.8516 16.1802 38.712 16.1831C39.1177 14.948 39.3976 13.6615 40.1796 12.5803Z" fill="#19346E"/>
<path d="M38.711 16.1828C38.8504 16.1806 38.9899 16.1783 39.1296 16.1754C38.3699 17.3945 37.8244 18.7077 37.4142 20.0811C37.3044 20.0797 37.1944 20.0782 37.0839 20.0766C37.2619 18.6267 37.8541 17.3499 38.711 16.1828Z" fill="#19346E"/>
<path d="M43.7195 36.3019C43.6297 36.6578 43.3278 36.3805 43.1548 36.4902C42.3343 35.9332 41.9364 35.0671 41.2983 34.1322C41.9074 34.4311 41.8889 34.4458 42.455 35.1512C42.812 35.5961 43.0852 36.1538 43.7195 36.3019Z" fill="#19346E"/>
<path d="M64.9741 47.8262C63.4515 48.0375 61.9304 48.0242 60.4093 47.8461C61.9333 47.8981 63.4575 47.9679 64.9741 47.8262Z" fill="#19346E"/>
<path d="M83.1669 18.1189C83.7159 18.6668 83.8064 19.4247 84.0654 20.1039C84.0944 20.1804 84.049 20.3487 83.9882 20.3812C83.848 20.456 83.7582 20.3568 83.6995 20.215C83.5475 19.8487 83.3337 19.5047 83.3204 19.0923L83.3218 19.0277L83.2565 19.0225C83.1104 18.9468 83.0465 18.8304 83.0814 18.6659C83.1099 18.4838 83.1386 18.3012 83.1669 18.1189Z" fill="#19346E"/>
<path d="M70.2747 4.43317C69.1908 4.13664 68.2089 3.58489 67.1644 3.19031C68.3175 3.314 69.3882 3.64472 70.2747 4.43317Z" fill="#19346E"/>
<path d="M73.6597 6.1134C74.5176 6.23211 75.2699 6.58063 75.9273 7.1471C75.0229 7.01367 74.2636 6.3558 73.3029 6.45908L73.3267 6.46644C73.3089 6.41753 73.3051 6.36791 73.3148 6.31734C73.4343 6.25656 73.6374 6.33823 73.6597 6.1134Z" fill="#19346E"/>
<path d="M65.581 2.8743C64.3286 2.65398 63.0641 2.71856 61.8028 2.71476C61.5988 2.71405 61.3591 2.78954 61.2301 2.53385C62.4181 2.42274 63.6038 2.51818 64.7887 2.58584C65.0615 2.60151 65.3815 2.60507 65.581 2.8743Z" fill="#19346E"/>
<path d="M59.2457 2.97146C58.7345 3.31191 58.1104 3.3525 57.565 3.60108C57.37 3.30217 57.623 3.23332 57.8099 3.1659C58.1744 3.03461 58.5483 2.93086 58.9191 2.81453C58.8894 2.59943 58.5347 2.71434 58.5941 2.61961C58.7172 2.42161 58.9533 2.30741 59.1921 2.52464C59.2094 2.67421 59.2279 2.8226 59.2457 2.97146Z" fill="#19346E"/>
<path d="M81.3054 13.8958C81.2268 13.898 81.1481 13.901 81.0702 13.9032C80.7474 13.3588 80.6338 12.742 80.4573 12.1473C80.4899 12.1197 80.5226 12.0931 80.5559 12.0673C80.9165 12.6309 81.2691 13.1981 81.3054 13.8958Z" fill="#19346E"/>
<path d="M56.7504 47.4961C56.7644 47.3917 56.778 47.2877 56.792 47.1832C57.3797 47.2915 57.9681 47.3997 58.5556 47.508C58.5468 47.5674 58.5378 47.6267 58.529 47.6868C57.9361 47.6236 57.3434 47.56 56.7504 47.4961Z" fill="#19346E"/>
<path d="M84.4752 25.9072C84.4151 25.896 84.384 25.859 84.3825 25.7982C84.4804 25.2977 84.3008 24.7638 84.5747 24.109C84.8351 24.8393 84.6607 25.3732 84.4752 25.9072Z" fill="#19346E"/>
<path d="M83.1669 18.1189C83.1386 18.3012 83.1099 18.4838 83.0816 18.6668C82.8315 18.2708 82.5816 17.8748 82.3307 17.4788C82.4687 17.4306 82.6075 17.3824 82.7455 17.335C82.8864 17.5954 83.0268 17.857 83.1669 18.1189Z" fill="#19346E"/>
<path d="M73.6597 6.11332C73.6374 6.33792 73.4343 6.25648 73.3148 6.31655C73.2666 6.35738 73.2184 6.39727 73.1708 6.4381C73.1611 6.57818 73.1509 6.71849 73.1412 6.85927C72.9038 6.61237 72.667 6.36474 72.4297 6.11688C72.8375 5.63351 73.2495 6.17932 73.6597 6.11332Z" fill="#19346E"/>
<path d="M82.7462 17.3342C82.6082 17.3824 82.4694 17.4306 82.3314 17.4781C82.3115 17.424 82.2906 17.3698 82.2706 17.3157C82.3523 17.1984 82.4338 17.0814 82.5155 16.9634C82.7106 17.0132 82.7864 17.1369 82.7462 17.3342Z" fill="#19346E"/>
<path d="M41.2612 33.9432C41.1203 33.7423 40.9051 33.565 41.0282 33.2601C41.299 33.361 41.3161 33.6101 41.4014 33.814C41.3555 33.8572 41.3087 33.9002 41.2612 33.9432Z" fill="#19346E"/>
<path d="M67.8115 47.368C68.0065 47.1774 68.2189 47.1871 68.4942 47.3219C68.2286 47.3367 68.0155 47.3478 67.8034 47.3597L67.8115 47.368Z" fill="#19346E"/>
<path d="M55.2723 46.7041C55.2761 46.7649 55.2797 46.8249 55.2835 46.8857C55.1112 46.8857 54.9385 46.8857 54.6824 46.8857C54.8984 46.6262 55.1084 46.7575 55.2723 46.7041Z" fill="#19346E"/>
<path d="M57.3308 3.67829C57.1638 3.80649 56.996 3.97648 56.8321 3.67378C56.9984 3.73907 57.1676 3.35208 57.3308 3.67829Z" fill="#19346E"/>
<path d="M80.4564 12.1465C80.3243 12.0746 80.3005 11.9507 80.2991 11.8165C80.3207 11.798 80.3421 11.7795 80.3637 11.761C80.4267 11.8633 80.4906 11.9649 80.5545 12.0665C80.5217 12.0924 80.4884 12.1192 80.4564 12.1465Z" fill="#19346E"/>
<path d="M80.2996 11.8166C80.2027 11.7617 80.1224 11.6437 80.2168 11.5896C80.3389 11.5198 80.321 11.6934 80.3642 11.7617C80.3427 11.7795 80.3213 11.7981 80.2996 11.8166Z" fill="#19346E"/>
<path d="M76.2931 7.37854C76.3717 7.40442 76.5314 7.40228 76.4653 7.51505C76.4098 7.61002 76.2983 7.51719 76.2466 7.4246L76.2931 7.37854Z" fill="#19346E"/>
<path d="M84.508 21.6946C84.5006 21.7131 84.494 21.7323 84.4863 21.7509C84.4656 21.7293 84.4439 21.7079 84.4231 21.6856C84.4389 21.6716 84.4544 21.6573 84.4701 21.6433C84.4828 21.6604 84.4954 21.6775 84.508 21.6946Z" fill="#19346E"/>
<path d="M76.2467 7.42443C76.2081 7.38597 76.1692 7.34656 76.1313 7.3081C76.2162 7.26275 76.2608 7.30596 76.2937 7.37932C76.2937 7.37861 76.2467 7.42443 76.2467 7.42443Z" fill="#19346E"/>
<path d="M83.2567 19.0227L83.3223 19.0279L83.3209 19.0925C83.2946 19.0733 83.2732 19.0502 83.2567 19.0227Z" fill="#19346E"/>
<path d="M41.4023 33.8141C41.4698 33.8941 41.5389 33.9817 41.4209 34.0641C41.4045 34.076 41.317 33.9855 41.2622 33.9425C41.3087 33.9003 41.3555 33.8573 41.4023 33.8141Z" fill="#19346E"/>
<path d="M45.9508 40.8339L45.9226 40.8135L45.9423 40.8002L45.9508 40.8339Z" fill="#19346E"/>
<path d="M67.8034 47.3596C67.7796 47.3841 67.7564 47.4078 67.7326 47.4323C67.7386 47.4204 67.7424 47.404 67.7519 47.3967C67.7698 47.3841 67.7915 47.3767 67.8115 47.367C67.8118 47.3679 67.8034 47.3596 67.8034 47.3596Z" fill="#19346E"/>
<path d="M83.9943 26.2698C84.0901 26.332 84.1516 26.4189 84.0827 26.5219C84.053 26.5656 83.9597 26.5673 83.8958 26.5872C83.9283 26.4818 83.9609 26.3759 83.9943 26.2698Z" fill="#19346E"/>
<path d="M51.3918 13.2403C49.9856 13.8692 48.4638 14.1947 47.0822 14.8918C46.6957 15.0867 46.2749 15.2158 45.8697 15.3751C45.8081 15.2113 45.6582 15.2208 45.5247 15.1987C46.8536 14.4504 48.2574 13.8745 49.7096 13.416C50.2662 13.2403 50.8316 13.0934 51.3925 12.9333C51.3918 13.035 51.3918 13.138 51.3918 13.2403Z" fill="#19346E"/>
<path d="M39.8969 19.461C39.2365 20.2641 38.5761 21.0664 37.9159 21.8695C37.7964 21.8643 37.6762 21.8591 37.5567 21.8539C38.0879 20.8038 38.7951 19.8947 39.7145 19.1561C39.7247 19.2874 39.7491 19.4106 39.8969 19.461Z" fill="#19346E"/>
<path d="M72.6879 7.56297C71.96 7.29375 71.2388 7.0098 70.5681 6.61379C70.5769 6.48773 70.5867 6.36166 70.5957 6.2356C71.3777 6.50245 72.1332 6.8296 72.8447 7.25291C72.7924 7.35619 72.7404 7.45922 72.6879 7.56297Z" fill="#19346E"/>
<path d="M49.9961 21.2082C50.4011 21.028 50.7477 20.4859 51.167 20.8523L49.9961 21.2082Z" fill="#19346E"/>
<path d="M45.0285 16.0693C44.3873 15.9708 43.9585 16.7552 43.2774 16.4883C43.58 16.0189 44.0884 15.8803 44.5633 15.6882C44.6099 15.9468 45.0491 15.7288 45.0285 16.0693Z" fill="#19346E"/>
<path d="M43.2439 16.7255C43.0458 17.1289 42.6474 17.2773 42.2889 17.476C42.205 17.3929 42.1212 17.3091 42.0373 17.226C42.3507 16.8442 42.7023 16.5565 43.2439 16.7255Z" fill="#19346E"/>
<path d="M78.4775 40.1646C78.5318 40.1475 78.5869 40.1304 78.6413 40.1133C78.6399 40.1755 78.6384 40.2379 78.6368 40.3001C78.5841 40.2543 78.5304 40.2099 78.4775 40.1646Z" fill="#19346E"/>
<path d="M73.1701 6.43821C73.2185 6.39737 73.2669 6.35749 73.3146 6.31665C73.3049 6.36793 73.3087 6.41755 73.3266 6.46575C73.2751 6.45672 73.2221 6.44794 73.1701 6.43821Z" fill="#19346E"/>
<path d="M51.1915 7.96355C49.2437 8.73847 47.3197 9.56443 45.481 10.5782C45.2955 10.5411 45.1107 10.5034 44.9254 10.4661C45.2549 10.2014 45.6511 10.0205 45.8884 9.6423C46.0219 9.42957 46.1215 8.97778 46.4909 9.49249C46.5294 9.54591 46.9627 9.33532 47.2009 9.22184C48.4044 8.64944 49.6051 8.07252 50.8991 7.724C50.9979 7.80424 51.0943 7.88354 51.1915 7.96355Z" fill="#19346E"/>
<path d="M44.9261 10.4661C45.1116 10.5031 45.2964 10.5408 45.4817 10.5781C43.7908 11.6852 42.1324 12.8345 40.6825 14.2568C40.6231 14.1396 40.5637 14.0225 40.5043 13.9055C41.7126 12.4178 43.3004 11.4176 44.9261 10.4661Z" fill="#19346E"/>
<path d="M38.1178 13.2873C40.5131 9.42391 44.0773 6.97666 48.0925 5.08234C48.8876 4.70723 49.7079 4.38577 50.5159 4.03772C50.8926 3.87557 51.3575 3.81432 51.3283 3.22506C51.3169 2.99405 51.5153 2.90645 51.7293 2.88437C53.9396 2.65621 56.1503 2.57739 58.3623 2.8592C58.4015 2.86419 58.4623 2.94348 58.4582 2.98266C58.4532 3.03156 58.3915 3.07454 58.3544 3.12012C58.1428 3.49666 57.7439 3.60444 57.3978 3.78796C57.0811 3.90073 56.7549 3.99451 56.5038 4.23881C56.3682 4.35182 56.2121 4.42257 56.0434 4.46863C55.4754 4.57166 55.0694 4.99948 54.5565 5.21339C54.4016 5.29198 54.2456 5.36818 54.0909 5.44772C53.6483 5.65783 53.259 5.95175 52.8577 6.2281C52.0396 6.69319 51.2314 7.17324 50.4484 7.69578C50.2377 7.83633 49.9861 8.00276 49.7352 7.79858C49.482 7.59227 49.6172 7.32732 49.6951 7.08729C49.2478 6.77794 48.9537 7.2295 48.5916 7.3164C48.2512 7.39807 47.9231 7.54574 47.6295 7.75158C47.3563 7.92845 47.0758 8.08918 46.7596 8.17797C44.1141 9.20977 41.7439 10.6832 39.6377 12.586C39.2339 12.9509 38.9443 13.4725 38.3385 13.5751C38.1834 13.5416 38.0698 13.4761 38.1178 13.2873Z" fill="#D61B23"/>
<path d="M51.7621 22.3774C51.5578 22.3937 51.4913 22.7081 51.2164 22.6145C51.2307 22.3676 51.2452 22.1169 51.2599 21.8664C51.2497 21.0303 50.6788 21.1836 50.1605 21.2442C48.9791 21.6022 47.8773 22.149 46.7681 22.6779C46.7042 22.902 46.5393 23.0364 46.3417 23.1295C45.1289 23.7005 43.9967 24.4087 42.8823 25.1484C42.7464 25.2387 42.5946 25.2892 42.4279 25.279C42.0029 25.6064 41.5776 25.9336 41.1527 26.261C40.9448 27.0117 40.1368 27.2716 39.7933 27.9188C39.6867 28.1197 39.4714 28.2621 39.3249 28.4482C38.8915 29.0686 38.4784 29.7001 38.1846 30.4019C37.719 31.4211 37.5605 32.5139 37.4104 33.6091C37.355 33.73 37.2861 33.8321 37.1289 33.8095C36.5692 32.069 36.324 30.3093 36.8039 28.5052C36.7635 27.1095 37.5308 26.0359 38.2266 24.9333C38.5404 24.464 38.9405 24.0609 39.2591 23.5946C39.6522 23.0981 40.1406 22.696 40.5863 22.2508C42.2067 20.8377 43.9822 19.654 45.8861 18.6583C46.3058 18.4598 46.7213 18.2525 47.1268 18.0256C47.9573 17.5911 48.799 17.1787 49.6846 16.8703C50.1971 16.6918 50.3401 16.4432 50.1047 15.9093C49.7652 15.1393 49.9809 14.8568 50.8076 14.9542C51.2433 15.0054 51.7265 14.9639 52.0881 15.3115C52.6877 15.4076 53.2875 15.5035 53.8871 15.5997C54.2444 15.3388 54.6212 15.528 54.9723 15.5883C56.0263 15.7692 57.0626 16.0425 58.109 16.2654C58.3409 16.3148 58.6262 16.3604 58.7036 16.613C58.7994 16.9252 58.5276 17.1006 58.3131 17.2459C56.5611 18.4327 54.9317 19.7751 53.301 21.1188C52.7898 21.5398 52.4285 22.1471 51.7621 22.3774Z" fill="#231F20"/>
<path d="M62.0278 14.1261C61.7164 14.2593 61.4981 14.3666 61.6639 13.8275C61.8765 13.1371 61.9834 12.4144 62.1419 11.7071C62.2091 11.4075 62.2376 11.1805 61.7929 11.2313C54.7649 12.0366 47.9436 13.4948 41.9176 17.4803C41.7634 17.5821 41.6285 17.7132 41.4845 17.8307C39.6135 19.0477 38.1249 20.6343 36.9457 22.5201C36.557 22.4648 36.754 22.2186 36.7844 22.0265C37.2376 18.274 39.2519 15.453 42.1079 13.1401C42.7115 12.6513 43.3434 12.1974 43.9625 11.7273C44.2927 11.1086 44.9446 10.9101 45.4957 10.6077C50.1773 8.03719 55.2355 6.63099 60.4834 5.82663C60.6162 5.80622 60.75 5.7896 60.8833 5.77322C61.2002 5.73404 61.304 5.62365 61.1272 5.301C60.9298 4.94061 60.4549 4.54437 60.7512 4.15857C61.0966 3.7082 61.6582 4.07001 62.1107 4.15168C65.9193 4.83733 69.5523 6.07093 73.0525 7.70671C73.4645 7.89925 73.8902 8.08538 74.1451 8.49991C74.3544 8.64188 74.5639 8.78361 74.8761 8.99515C70.2396 10.0023 66.0291 11.8073 62.0278 14.1261Z" fill="white"/>
</g>
<defs>
<clipPath id="clip0_1_2344">
<rect width="200" height="90" fill="white" transform="translate(0.108093)"/>
</clipPath>
</defs>
</svg>
